<svg version="1.1" id="Layer_1" xmlns="http://www.w3.org/2000/svg" xmlns:xlink="http://www.w3.org/1999/xlink" x="0px" y="0px" viewBox="0 0 500 500" style="width: 144px;" xml:space="preserve" data-imageid="businesswoman-2" imageName="Businesswoman" class="illustrations_image">
<style type="text/css">
	.st0_businesswoman-2{fill:#D1D3D4;}
	.st1_businesswoman-2{fill:#FFFFFF;}
	.st2_businesswoman-2{fill:none;}
	.st3_businesswoman-2{fill:#231F20;}
	.st4_businesswoman-2{fill:#68E1FD;}
</style>
<path id="Floor_businesswoman-2" class="st0_businesswoman-2" d="M460.9,365.2H56.6c-0.4,0-0.7-0.3-0.7-0.7c0-0.4,0.3-0.7,0.7-0.7h404.3c0.4,0,0.7,0.3,0.7,0.7&#10;&#9;S461.3,365.2,460.9,365.2C460.9,365.2,460.9,365.2,460.9,365.2z"/>
<g id="Window_businesswoman-2">
	<rect x="350.5" y="100.3" class="st1_businesswoman-2" width="80.7" height="200.7"/>
	<path class="st0_businesswoman-2" d="M431.2,301.7h-80.7c-0.4,0-0.7-0.3-0.7-0.7v0V100.3c0-0.4,0.3-0.7,0.7-0.7l0,0h80.7c0.4,0,0.7,0.3,0.7,0.7V301&#10;&#9;&#9;C431.9,301.4,431.6,301.7,431.2,301.7C431.2,301.7,431.2,301.7,431.2,301.7z M351.2,300.3h79.3V101.1h-79.3L351.2,300.3z"/>
	<rect x="260.8" y="100.3" class="st1_businesswoman-2" width="80.7" height="200.7"/>
	<path class="st0_businesswoman-2" d="M341.5,301.7h-80.7c-0.4,0-0.7-0.3-0.7-0.7v0V100.3c0-0.4,0.3-0.7,0.7-0.7l0,0h80.7c0.4,0,0.7,0.3,0.7,0.7v0&#10;&#9;&#9;V301C342.2,301.4,341.9,301.7,341.5,301.7C341.5,301.7,341.5,301.7,341.5,301.7z M261.5,300.3h79.3V101.1h-79.3L261.5,300.3z"/>
	<rect x="171" y="100.3" class="st1_businesswoman-2" width="80.7" height="200.7"/>
	<path class="st0_businesswoman-2" d="M251.8,301.7H171c-0.4,0-0.7-0.3-0.7-0.7l0,0V100.3c0-0.4,0.3-0.7,0.7-0.7h80.7c0.4,0,0.7,0.3,0.7,0.7V301&#10;&#9;&#9;C252.4,301.4,252.1,301.7,251.8,301.7C251.8,301.7,251.8,301.7,251.8,301.7z M171.8,300.3h79.3V101.1h-79.3L171.8,300.3z"/>
	<rect x="81.3" y="100.3" class="st1_businesswoman-2" width="80.7" height="200.7"/>
	<path class="st0_businesswoman-2" d="M162.1,301.7H81.3c-0.4,0-0.7-0.3-0.7-0.7l0,0V100.3c0-0.4,0.3-0.7,0.7-0.7h80.7c0.4,0,0.7,0.3,0.7,0.7V301&#10;&#9;&#9;C162.8,301.4,162.5,301.7,162.1,301.7C162.1,301.7,162.1,301.7,162.1,301.7z M82.1,300.3h79.3V101.1H82L82.1,300.3z"/>
	<line class="st2_businesswoman-2" x1="330.1" y1="134.9" x2="297.1" y2="166.9"/>
	<path class="st0_businesswoman-2" d="M297.1,167.6c-0.2,0-0.4-0.1-0.5-0.2c-0.3-0.3-0.3-0.7,0-1c0,0,0,0,0,0l33-32c0.3-0.3,0.7-0.3,1,0s0.3,0.7,0,1&#10;&#9;&#9;l-33,32C297.5,167.5,297.3,167.6,297.1,167.6z"/>
	<line class="st2_businesswoman-2" x1="231.6" y1="131.6" x2="198.6" y2="163.5"/>
	<path class="st0_businesswoman-2" d="M198.6,164.2c-0.2,0-0.4-0.1-0.5-0.2c-0.3-0.3-0.3-0.7,0-1c0,0,0,0,0,0l33-32c0.3-0.3,0.7-0.3,1,0&#10;&#9;&#9;c0.3,0.3,0.3,0.7,0,1c0,0,0,0,0,0l-33,32C199,164.1,198.8,164.2,198.6,164.2z"/>
	<line class="st2_businesswoman-2" x1="317.8" y1="174.1" x2="290.9" y2="198.5"/>
	<path class="st0_businesswoman-2" d="M290.9,199.2c-0.2,0-0.4-0.1-0.5-0.2c-0.3-0.3-0.2-0.7,0-1c0,0,0,0,0,0l26.9-24.4c0.3-0.3,0.7-0.3,1,0&#10;&#9;&#9;c0,0,0,0,0,0c0.3,0.3,0.3,0.7,0,1L291.4,199C291.3,199.1,291.1,199.2,290.9,199.2z"/>
	<line class="st2_businesswoman-2" x1="403.2" y1="119.6" x2="368.4" y2="145.7"/>
	<path class="st0_businesswoman-2" d="M368.4,146.4c-0.2,0-0.4-0.1-0.6-0.3c-0.2-0.3-0.2-0.7,0.1-1c0,0,0,0,0,0l34.8-26.1c0.3-0.2,0.7-0.2,1,0.1&#10;&#9;&#9;c0.2,0.3,0.2,0.7-0.1,1l-34.8,26.1C368.7,146.3,368.6,146.4,368.4,146.4z"/>
	<line class="st2_businesswoman-2" x1="231.6" y1="198.9" x2="204.5" y2="222.6"/>
	<path class="st0_businesswoman-2" d="M204.5,223.3c-0.4,0-0.7-0.3-0.7-0.7c0-0.2,0.1-0.4,0.2-0.5l27.1-23.7c0.3-0.3,0.7-0.2,1,0c0,0,0,0,0,0&#10;&#9;&#9;c0.3,0.3,0.2,0.7-0.1,1L205,223.1C204.9,223.3,204.7,223.3,204.5,223.3z"/>
	<line class="st2_businesswoman-2" x1="385.8" y1="194.1" x2="407.1" y2="178.5"/>
	<path class="st0_businesswoman-2" d="M385.8,194.8c-0.2,0-0.4-0.1-0.6-0.3c-0.2-0.3-0.2-0.7,0.1-1c0,0,0,0,0,0l21.3-15.5c0.3-0.2,0.8-0.2,1,0.2&#10;&#9;&#9;c0.2,0.3,0.2,0.8-0.1,1l-21.3,15.5C386.1,194.7,386,194.8,385.8,194.8z"/>
	<line class="st2_businesswoman-2" x1="121.7" y1="114.4" x2="96.5" y2="129.7"/>
	<path class="st0_businesswoman-2" d="M96.5,130.4c-0.4,0-0.7-0.3-0.7-0.7c0-0.2,0.1-0.5,0.3-0.6l25.2-15.3c0.3-0.2,0.8-0.1,1,0.2c0,0,0,0,0,0&#10;&#9;&#9;c0.2,0.3,0.1,0.7-0.2,1c0,0,0,0-0.1,0l-25.3,15.3C96.7,130.4,96.6,130.4,96.5,130.4z"/>
	<line class="st2_businesswoman-2" x1="293.1" y1="118.8" x2="279.1" y2="131.6"/>
	<path class="st0_businesswoman-2" d="M279.1,132.3c-0.2,0-0.4-0.1-0.5-0.2c-0.3-0.3-0.2-0.7,0-1c0,0,0,0,0,0l14.1-12.8c0.3-0.3,0.7-0.3,1,0&#10;&#9;&#9;c0.3,0.3,0.2,0.7,0,1c0,0,0,0,0,0L279.6,132C279.4,132.2,279.3,132.3,279.1,132.3z"/>
</g>
<g id="Character_businesswoman-2">
	<path class="st1_businesswoman-2" d="M98.6,268.9c0,0,4.9,13.4,1.8,33.4c-2.5,16.3-3.3,85.6-3.3,85.6s-1.7,4.6-9.7,6.8s-7.3-6-7.3-6l-4.7-103.2&#10;&#9;&#9;L98.6,268.9z"/>
	<path class="st3_businesswoman-2" d="M84.8,395.8c-1.2,0-2.4-0.4-3.4-1.1c-2.4-2-2.1-5.9-2.1-6.1l-4.7-103.1c0-0.2,0.1-0.5,0.3-0.6l23.2-16.6&#10;&#9;&#9;c0.2-0.1,0.4-0.2,0.6-0.1c0.2,0.1,0.4,0.2,0.5,0.4c0,0.1,4.9,13.8,1.8,33.8c-2.5,16.1-3.3,84.8-3.3,85.5c0,0.1,0,0.2,0,0.2&#10;&#9;&#9;c-0.1,0.2-2,5-10.2,7.2C86.7,395.7,85.8,395.8,84.8,395.8z M76.1,285.8l4.7,102.8c0,0.1-0.2,3.4,1.6,4.9c1.1,0.9,2.7,1,4.8,0.4&#10;&#9;&#9;c6.8-1.9,8.9-5.6,9.2-6.3c0-3.6,0.8-69.8,3.3-85.6c2.6-16.7-0.5-28.8-1.5-32.1L76.1,285.8z"/>
	<path class="st1_businesswoman-2" d="M111.6,95.2c4.6,3.8,7.7,9.9,10.2,15.5c1.7,3.8,2.1,9.1,4.1,12.6c0.6,1.1,1.8,1.6,3,1.2&#10;&#9;&#9;c-2.1,5.3-6.9,9.2-12.1,11.5s-11,3-16.7,3.6c-2.7,0.5-5.5,0.5-8.2,0.2c-2.5-0.6-4.9-1.5-7.1-2.6l-11.8-5.7c1.3,0.3,2.4-0.9,3-2.1&#10;&#9;&#9;c2.2-4.5,1.9-9.8,1.8-14.8c-0.1-4.3-0.1-9.9,2.7-13.5c1.7-2.1,6.5-5.4,8.5-1.7c-1.6-2.9,7.7-7.4,9.4-7.7&#10;&#9;&#9;C103.2,90.5,107.9,92.1,111.6,95.2z"/>
	<path class="st3_businesswoman-2" d="M94.9,140.7c-1.1,0-2.1-0.1-3.1-0.3c-2.5-0.6-5-1.5-7.3-2.7l-11.8-5.7c-0.3-0.2-0.5-0.5-0.4-0.9&#10;&#9;&#9;c0.1-0.3,0.5-0.5,0.8-0.5c0.8,0.2,1.6-0.7,2.1-1.8c2-4,1.9-8.7,1.8-13.3v-1.2c-0.1-4-0.2-10.1,2.8-13.9c1.3-1.6,4.2-3.8,6.8-3.6&#10;&#9;&#9;c0.6,0,1.1,0.2,1.6,0.6l0,0c1.4-3,8.5-6.3,9.9-6.6c4.7-1,9.7,0.4,13.9,3.9l0,0c4.6,3.8,7.7,9.8,10.4,15.8c0.8,1.9,1.4,3.9,1.8,5.9&#10;&#9;&#9;c0.4,2.3,1.2,4.5,2.2,6.6c0.4,0.8,1.2,1.1,2.1,0.9c0.4-0.2,0.8,0,1,0.3c0.1,0.2,0.1,0.4,0,0.6c-1.9,5-6.5,9.3-12.5,11.9&#10;&#9;&#9;c-5.1,2.2-10.5,2.9-16.9,3.7C98.4,140.6,96.6,140.7,94.9,140.7z M75,131.6l10.1,4.9c2.2,1.2,4.5,2,6.9,2.5c2.7,0.3,5.4,0.3,8-0.2&#10;&#9;&#9;c6.3-0.8,11.5-1.5,16.5-3.6c5.2-2.2,9.2-5.8,11.2-9.9c-1-0.2-1.9-0.8-2.5-1.7c-1.1-2.2-1.9-4.6-2.4-7c-0.4-1.9-1-3.8-1.7-5.7&#10;&#9;&#9;c-2.6-5.8-5.6-11.6-10-15.2l0,0c-3.9-3.2-8.4-4.5-12.7-3.6c-1.3,0.3-7.8,3.4-8.9,5.8c-0.2,0.3-0.2,0.6,0,0.9l0,0&#10;&#9;&#9;c0.2,0.4,0.1,0.8-0.3,1c-0.4,0.2-0.8,0.1-1-0.3l0,0c-0.3-0.7-1-1.2-1.8-1.2c-1.9-0.2-4.4,1.7-5.5,3.1c-2.7,3.4-2.6,9.2-2.5,13v1.2&#10;&#9;&#9;c0.1,4.8,0.2,9.7-1.9,14C76.3,130.3,75.7,131,75,131.6z"/>
	<path class="st1_businesswoman-2" d="M120.9,150.9l28.1,69.4l-29.4,5.7C119.6,226,111.8,157.6,120.9,150.9z"/>
	<path class="st3_businesswoman-2" d="M119.6,226.7c-0.4,0-0.7-0.3-0.7-0.6c-0.3-2.8-7.7-68.9,1.6-75.8c0.2-0.1,0.4-0.2,0.6-0.1&#10;&#9;&#9;c0.2,0.1,0.4,0.2,0.5,0.4l28.1,69.4c0.1,0.2,0.1,0.4,0,0.6c-0.1,0.2-0.3,0.3-0.5,0.4l-29.4,5.8L119.6,226.7z M120.6,152.1&#10;&#9;&#9;c-6.1,7.9-2.5,54.2-0.4,73l27.8-5.4L120.6,152.1z"/>
	
		<rect x="113" y="199.9" transform="matrix(0.9604 -0.2787 0.2787 0.9604 -56.493 47.8058)" class="st1_businesswoman-2" width="53.8" height="45.5"/>
	<path class="st3_businesswoman-2" d="M120.4,252.7c-0.3,0-0.6-0.2-0.7-0.5l-12.7-43.7c-0.1-0.2,0-0.4,0.1-0.6c0.1-0.2,0.3-0.3,0.4-0.4l51.6-15&#10;&#9;&#9;c0.2-0.1,0.4,0,0.6,0.1c0.2,0.1,0.3,0.2,0.4,0.4l12.7,43.7c0.1,0.4-0.1,0.8-0.5,0.9c0,0,0,0,0,0l-51.6,15&#10;&#9;&#9;C120.6,252.7,120.5,252.7,120.4,252.7z M108.7,208.8l12.3,42.3l50.2-14.6l-12.3-42.3L108.7,208.8z"/>
	<path class="st1_businesswoman-2" d="M108.5,272.3c0,0-2.4,14,4.2,33.2c5.4,15.6,20.3,82.9,20.3,82.9s5.8,7.1,14,7.8s4.4-7.5,4.4-7.5l-17.1-104.3&#10;&#9;&#9;L108.5,272.3z"/>
	<path class="st3_businesswoman-2" d="M148.1,397c-0.4,0-0.7,0-1.1,0c-8.5-0.8-14.3-7.8-14.5-8.1c-0.1-0.1-0.1-0.2-0.1-0.3&#10;&#9;&#9;c-0.1-0.7-15-67.4-20.3-82.8c-6.6-19.1-4.2-33.4-4.2-33.6c0.1-0.4,0.4-0.7,0.8-0.6c0.1,0,0.1,0,0.2,0.1l25.8,12.2&#10;&#9;&#9;c0.2,0.1,0.4,0.3,0.4,0.5l17.2,104.2c0.3,0.6,1.8,4.4,0.2,6.7C151.5,396.4,150.1,397,148.1,397z M133.7,388.1&#10;&#9;&#9;c0.8,0.9,6.2,6.8,13.4,7.4c2,0.2,3.4-0.2,4-1.1c1.1-1.5,0.1-4.4-0.3-5.3c0-0.1-0.1-0.1-0.1-0.2L133.6,285l-24.5-11.6&#10;&#9;&#9;c-0.4,3.5-1.2,15.9,4.3,31.9C118.6,320.4,132.8,384.2,133.7,388.1L133.7,388.1z"/>
	<path class="st4_businesswoman-2 targetColor" d="M122.7,145.9c0,0-38.5-9.7-51.4,5c0,0,9.2,20.7,3.9,29c0,0,8.9,16.1,7.7,31.1s-3.5,12-9.7,37.5&#10;&#9;&#9;s-1.1,87.5-1.1,87.5h78.5l-22.9-151.4c-1.5-6.9-2.5-13.9-3-21C124.4,157.6,123.7,151.7,122.7,145.9z" style="fill: rgb(128, 0, 255);"/>
	<path class="st3_businesswoman-2" d="M117.3,244.5l22.6-3.2l-12.2-56.8c0,0,1.4-13.5,1.5-23.8s-6.6-14.9-6.6-14.9l-13.6-5.7L117.3,244.5z"/>
	<path class="st3_businesswoman-2" d="M117.3,245.2c-0.4,0-0.7-0.3-0.7-0.7l-8.2-104.3c0-0.3,0.1-0.5,0.3-0.6c0.2-0.2,0.5-0.2,0.7-0.1l13.6,5.7&#10;&#9;&#9;l0.1,0.1c0.3,0.2,7,5,6.9,15.5c-0.1,9.7-1.4,22.4-1.5,23.7l12.2,56.7c0,0.2,0,0.4-0.1,0.6c-0.1,0.2-0.3,0.3-0.5,0.3l-22.6,3.2&#10;&#9;&#9;L117.3,245.2z M109.9,141.3l8.1,102.4l21.1-3l-12-56c0-0.1,0-0.1,0-0.2c0-0.1,1.4-13.6,1.5-23.7c0.1-9.3-5.6-13.8-6.2-14.2&#10;&#9;&#9;L109.9,141.3z"/>
	<path class="st1_businesswoman-2" d="M109.1,140.2l0.3,9.7c0,0-1.2,7.6-8.9,6.2c-4.4-0.7-7.9-3.9-8.9-8.1l-0.5-21.1c0.2-1,0.5-2,0.8-3&#10;&#9;&#9;c0.4-1.7,0.7-3.3,1-5c0.5-3.5,0.8-7,0.8-10.5c0.9,1.9,1.7,3.8,2.1,5.9l3.8-0.8c0.3-1.5,0.5-3,0.6-4.6c1.4,1.8,3,3.4,4.8,4.8&#10;&#9;&#9;c0.3,0.3,0.7,0.5,1.1,0.6c0.3,0,0.7,0,1-0.2c1.5-0.6,3.1-1.2,4.7-1.6c1.4-0.3,1.5,0,1.7,1.4c0.3,1.9,0.3,3.9,0.5,5.8&#10;&#9;&#9;c0.3,4.3,1,9.2,0.3,13.4C113.7,139.1,109.1,140.2,109.1,140.2z"/>
	<path class="st3_businesswoman-2" d="M102.4,157c-0.7,0-1.3-0.1-1.9-0.2c-4.6-0.7-8.4-4.2-9.5-8.7c0-0.1-0.5-20.9-0.5-21.2c0.1-0.7,0.2-1.5,0.5-2.2&#10;&#9;&#9;c0.1-0.4,0.2-0.8,0.3-1c0.4-1.8,0.7-3.3,1-5c0.5-3.4,0.8-6.9,0.8-10.4c0-0.3,0.2-0.6,0.6-0.7c0.3-0.1,0.7,0.1,0.8,0.4&#10;&#9;&#9;c0.9,1.7,1.5,3.5,2,5.3l2.7-0.6c0.3-1.3,0.4-2.7,0.5-4c0-0.3,0.2-0.6,0.5-0.7c0.3-0.1,0.6,0,0.8,0.2c1.4,1.7,3,3.3,4.7,4.7&#10;&#9;&#9;c0.2,0.2,0.5,0.4,0.8,0.4c0.2,0,0.5-0.1,0.7-0.2c0.5-0.2,1-0.4,1.5-0.6c1.1-0.4,2.2-0.8,3.3-1.1c0.6-0.2,1.3-0.2,1.8,0.1&#10;&#9;&#9;c0.5,0.5,0.8,1.2,0.8,1.9c0.2,1.4,0.3,2.9,0.4,4.3l0.1,1.6c0.1,0.9,0.2,1.9,0.2,2.8c0.3,3.6,0.7,7.3,0,10.7&#10;&#9;&#9;c-0.5,5.1-3.8,6.9-5.2,7.4l0.3,9.2c0,0,0,0.1,0,0.1c-0.4,2.2-1.6,4.2-3.4,5.6C105.5,156.5,103.9,157,102.4,157z M94.3,111.7&#10;&#9;&#9;c-0.1,2.4-0.3,4.8-0.7,7.2c-0.2,1.7-0.6,3.3-1,5c-0.1,0.3-0.2,0.7-0.3,1.2c-0.2,0.5-0.4,1.1-0.4,1.7c0,0.3,0.5,21.1,0.5,21.1&#10;&#9;&#9;c1,3.9,4.3,6.9,8.3,7.4c1.8,0.4,3.7,0.1,5.2-0.9c1.5-1.2,2.5-2.8,2.8-4.6l-0.3-9.6c0-0.3,0.2-0.6,0.6-0.7c0.2-0.1,4.1-1.1,4.6-6.4&#10;&#9;&#9;c0.4-3.5,0.4-6.9,0-10.4c-0.1-1-0.2-1.9-0.2-2.9c0-0.5-0.1-1.1-0.1-1.6c-0.1-1.4-0.2-2.8-0.3-4.2c0-0.3-0.1-0.6-0.2-0.9&#10;&#9;&#9;c-0.2,0.1-0.4,0.1-0.7,0.1c-1,0.3-2.1,0.6-3.1,1c-0.5,0.2-1,0.4-1.6,0.6c-0.4,0.2-0.9,0.3-1.3,0.2c-0.6-0.1-1.1-0.4-1.5-0.8&#10;&#9;&#9;c-1.3-1.1-2.6-2.3-3.7-3.6c-0.1,1-0.3,2-0.5,2.9c-0.1,0.3-0.3,0.5-0.6,0.6l-3.8,0.8c-0.4,0.1-0.8-0.2-0.8-0.5&#10;&#9;&#9;C94.8,113.5,94.6,112.6,94.3,111.7z"/>
	<path class="st1_businesswoman-2" d="M105.5,120.3c0,0,3.9,6.4,2.9,7.5s-3.8,0.2-3.8,0.2"/>
	<path class="st3_businesswoman-2" d="M106.6,129c-0.8,0-1.5-0.1-2.3-0.4c-0.4-0.1-0.6-0.5-0.5-0.9c0,0,0,0,0,0c0.1-0.4,0.5-0.6,0.9-0.5&#10;&#9;&#9;c1,0.3,2.6,0.5,3.1,0c0.2-0.6-1.2-3.7-3-6.6c-0.2-0.3-0.1-0.8,0.2-1c0.3-0.2,0.8-0.1,1,0.2l0,0c1.9,3.2,4,7.2,2.8,8.3&#10;&#9;&#9;C108.2,128.8,107.4,129.1,106.6,129z"/>
	
		<ellipse transform="matrix(1.832498e-02 -0.9998 0.9998 1.832498e-02 -22.9186 215.8946)" class="st3_businesswoman-2" cx="98.5" cy="119.6" rx="1.7" ry="0.7"/>
	
		<ellipse transform="matrix(1.832498e-02 -0.9998 0.9998 1.832498e-02 -12.9124 227.4134)" class="st3_businesswoman-2" cx="109.4" cy="120.3" rx="1.7" ry="0.7"/>
	<path class="st3_businesswoman-2" d="M102.6,123.7h-5.3c-1.4,0-2.6-1.2-2.6-2.6v-4.5c0-0.4,0.3-0.7,0.7-0.7h9.1c0.4,0,0.7,0.3,0.7,0.7v4.5&#10;&#9;&#9;C105.3,122.5,104.1,123.7,102.6,123.7z M96.1,117.3v3.8c0,0.7,0.5,1.2,1.2,1.2h5.3c0.7,0,1.2-0.6,1.2-1.2v0v-3.8H96.1z"/>
	<path class="st3_businesswoman-2" d="M114.2,123.7h-5.3c-1.5,0-2.6-1.2-2.6-2.6v-4.5c0-0.4,0.3-0.7,0.7-0.7h9.1c0.4,0,0.7,0.3,0.7,0.7v4.5&#10;&#9;&#9;C116.8,122.5,115.6,123.7,114.2,123.7z M107.7,117.3v3.8c0,0.7,0.6,1.2,1.2,1.2h0h5.3c0.7,0,1.2-0.6,1.2-1.2v0v-3.8H107.7z"/>
	<path class="st3_businesswoman-2" d="M107,119.6h-2.1c-0.4,0-0.7-0.3-0.7-0.7c0-0.4,0.3-0.7,0.7-0.7h2.1c0.4,0,0.7,0.3,0.7,0.7&#10;&#9;&#9;C107.7,119.3,107.4,119.6,107,119.6z"/>
	<path class="st1_businesswoman-2" d="M143.5,245.6c0,0,0.4,2,3.9,1s6.9-1.8,7.3-3.6s0.3-10.2-1.3-11.2s-6-0.3-7.4,3.4s-0.9,9.3-0.9,9.3L143.5,245.6&#10;&#9;&#9;z"/>
	<path class="st3_businesswoman-2" d="M145.8,247.6c-0.7,0-1.3-0.1-1.9-0.5c-0.5-0.3-0.9-0.8-1.1-1.4c-0.1-0.3,0.1-0.6,0.3-0.8l1.3-0.8&#10;&#9;&#9;c-0.1-1.4-0.2-5.9,1-9.1c0.7-1.9,2.2-3.3,4.1-3.9c1.4-0.6,3-0.5,4.4,0.1c2.1,1.3,2,10.4,1.6,11.9c-0.5,2.2-4,3.2-7.8,4.1&#10;&#9;&#9;C147,247.5,146.4,247.6,145.8,247.6z M144.5,245.8c0.4,0.3,1.2,0.5,2.8,0.1c2.9-0.8,6.5-1.7,6.8-3.1c0.5-2.1,0-9.8-1-10.4&#10;&#9;&#9;c-1-0.4-2.1-0.4-3.1,0c-1.5,0.5-2.6,1.6-3.2,3.1c-1.3,3.6-0.9,8.9-0.9,9c0,0.3-0.1,0.5-0.3,0.7L144.5,245.8z M143.5,245.6&#10;&#9;&#9;L143.5,245.6z"/>
	<path class="st1_businesswoman-2" d="M93.8,127.3c-1.2-2-2.5-4.4-5.3-3.5c-0.5,0.2-1,0.5-1.4,0.9c-1.9,1.6-2.1,4.4-0.5,6.2c0.1,0.1,0.2,0.2,0.3,0.3&#10;&#9;&#9;c1.5,1.8,3.9,2.6,6.2,2.1"/>
	<path class="st3_businesswoman-2" d="M91.8,134.3c-2.1-0.1-4-1-5.4-2.5c-2.1-2.4-2-5.2,0.3-7.5c0.5-0.5,1-0.9,1.7-1.1c3.3-1.1,4.9,1.8,6.1,3.8&#10;&#9;&#9;c0.2,0.3,0.1,0.8-0.2,1c0,0,0,0,0,0c-0.3,0.2-0.8,0.1-1-0.3c0,0,0,0,0,0c-1.3-2.3-2.4-3.8-4.4-3.2c-0.4,0.1-0.8,0.4-1.1,0.7&#10;&#9;&#9;c-1.8,1.8-1.8,3.8-0.2,5.6c1.3,1.6,3.4,2.3,5.4,1.9c0.4-0.1,0.8,0.1,0.9,0.5s-0.1,0.8-0.5,0.9C92.8,134.3,92.3,134.3,91.8,134.3z"/>
	<path class="st3_businesswoman-2" d="M105.6,134.5c-1.4,0.1-2.8-0.4-3.8-1.3c-2.3-2.1-1.9-5.8-1.9-6c0.1-0.4,0.4-0.7,0.8-0.6c0.4,0,0.7,0.4,0.6,0.8&#10;&#9;&#9;c0,0,0,0,0,0c0,0-0.3,3.2,1.4,4.8c1,0.9,2.6,1.2,4.6,0.8c0.4-0.1,0.7,0.2,0.8,0.5c0,0,0,0,0,0c0.1,0.4-0.2,0.7-0.5,0.8c0,0,0,0,0,0&#10;&#9;&#9;C106.9,134.4,106.3,134.5,105.6,134.5z"/>
	<path class="st3_businesswoman-2" d="M91.4,140.2c0,0,6.9,75.2,7,104.3l-31-1.5c0,0,4.3-31.3,3.7-38.4s1.6-20.8,0.5-26.8s-2.9-27-2.9-27&#10;&#9;&#9;s4.2-5.5,10.1-7.6C83,142,87.2,140.9,91.4,140.2z"/>
	<path class="st3_businesswoman-2" d="M98.5,245.2L98.5,245.2l-31-1.5c-0.4,0-0.7-0.4-0.7-0.8c0,0,0,0,0-0.1c0-0.3,4.3-31.3,3.7-38.2&#10;&#9;&#9;c-0.2-4.4-0.1-8.7,0.3-13.1c0.4-5.2,0.7-10.6,0.2-13.6c-1-6-2.8-26.2-2.9-27c0-0.2,0-0.4,0.1-0.5c0.2-0.2,4.4-5.7,10.5-7.8&#10;&#9;&#9;c4.1-1.3,8.3-2.4,12.6-3.2c0.2,0,0.4,0,0.6,0.1c0.2,0.1,0.3,0.3,0.3,0.5c0.1,0.8,6.9,75.5,7,104.4c0,0.2-0.1,0.4-0.2,0.5&#10;&#9;&#9;C98.9,245.1,98.7,245.2,98.5,245.2z M68.4,242.3l29.4,1.4c-0.2-27.7-6.2-94.7-7-102.7c-3.9,0.8-7.8,1.8-11.6,3&#10;&#9;&#9;c-5,1.7-8.8,6.1-9.6,7.1c0.2,2.6,1.9,21.1,2.9,26.6c0.6,3.3,0.2,8.5-0.2,14c-0.4,4.3-0.5,8.6-0.3,12.9&#10;&#9;&#9;C72.5,211.1,69,237.3,68.4,242.3L68.4,242.3z"/>
	<path class="st1_businesswoman-2" d="M73.6,183.4L59.1,211c-2.2,4.1,19.9,37.4,19.1,42.1c0,4.6-4.4,10.7-7.4,13.7c-0.3,0.3-0.5,0.5-0.9,0.7&#10;&#9;&#9;c-0.4,0.1-0.8,0.2-1.3,0.1c-2-0.2-3.9-1-5.5-2.2c-0.7-0.4-1.3-1.1-1.6-1.8c-0.3-0.8,0-1.7,0.8-2.1l2.9-0.2c0.2,0,0.4-0.1,0.6-0.2&#10;&#9;&#9;c0.1-0.1,0.2-0.3,0.3-0.5c0.3-0.8,2.8-6.8,2.1-7.5c-0.2-0.2-29.4-34.4-29-41.1s29.7-61.2,29.7-61.2S82.7,162.1,73.6,183.4z"/>
	<path class="st3_businesswoman-2" d="M69.1,268.4c-0.2,0-0.4,0-0.5,0c-2.1-0.2-4.2-1.1-5.9-2.4c-0.8-0.5-1.5-1.3-1.9-2.2c-0.5-1.2,0.1-2.5,1.3-3&#10;&#9;&#9;h0.2l2.9-0.2h0.2c0,0,0-0.1,0-0.1s0.2-0.5,0.3-0.9c1.6-4.2,1.9-5.6,1.8-6c-1.7-2.1-29.5-34.7-29.1-41.6s28.6-59.2,29.8-61.5&#10;&#9;&#9;c0.1-0.2,0.3-0.3,0.5-0.4c0.2,0,0.4,0,0.6,0.1c0.2,0.1,14.2,11.9,4.9,33.3v0.1l-14.5,27.6c-1,1.9,5.5,13.6,10.1,22.2&#10;&#9;&#9;c5.9,10.7,9.4,17.4,9,19.6c0,4.8-4.6,11.1-7.7,14.1c-0.3,0.3-0.7,0.6-1.1,0.8C69.8,268.3,69.4,268.4,69.1,268.4z M62.5,262.2&#10;&#9;&#9;c-0.3,0.3-0.4,0.7-0.3,1.1c0.3,0.6,0.8,1.1,1.3,1.5c1.5,1.1,3.3,1.9,5.2,2.1c0.3,0.1,0.6,0,0.9-0.1c0.2-0.1,0.5-0.3,0.7-0.5&#10;&#9;&#9;c2.8-2.8,7.2-8.8,7.2-13.2c0.3-2-4.6-11-8.9-18.8c-7.2-13.1-11.4-21.2-10.2-23.6L72.9,183c7.8-18-1.2-28.5-3.9-31&#10;&#9;&#9;c-10.2,19-28.8,55-29.1,60.1c-0.4,6,26.9,38.5,28.8,40.5c0.7,0.7,0.3,2.4-1.6,7.4c-0.2,0.4-0.3,0.7-0.3,0.8&#10;&#9;&#9;c-0.1,0.3-0.3,0.6-0.5,0.8c-0.3,0.2-0.6,0.3-1,0.4L62.5,262.2z M67.6,253.6L67.6,253.6z M73.6,183.3L73.6,183.3z"/>
	<path class="st3_businesswoman-2" d="M105,141.2c-2.8,0.1-5.6-0.6-8-2.1c-0.3-0.2-0.4-0.7-0.2-1c0.2-0.3,0.7-0.4,1-0.1l0,0c4,2.9,11,1.5,11.1,1.5&#10;&#9;&#9;c0.4-0.1,0.8,0.1,0.9,0.4c0.1,0.4-0.1,0.8-0.4,0.9c-0.1,0-0.1,0-0.2,0C107.8,141.1,106.4,141.2,105,141.2z"/>
	<path class="st3_businesswoman-2" d="M133,388.4c0,0,0,17.4,1.2,17.6s8.9,0.1,8.9,0.1l0.1-5.1c0,0,5.1,4.6,6.9,5.3s26.2,3.4,25-0.5&#10;&#9;&#9;c-1.6-4.9-24.5-17.4-24.5-17.4L133,388.4z"/>
	<path class="st3_businesswoman-2" d="M167.2,408.6c-1.5,0-3.2,0-5.2-0.2c-5.6-0.3-11.2-1-12.2-1.4c-1.4-0.6-4.3-3-6-4.4l-0.1,3.6&#10;&#9;&#9;c0,0.4-0.3,0.7-0.7,0.7c-0.8,0-7.8,0-9-0.2c-0.7-0.1-1.8-0.3-1.8-18.3c0-0.4,0.3-0.7,0.7-0.7c0,0,0,0,0,0h17.6l0,0&#10;&#9;&#9;c0.1,0,0.2,0,0.4,0.1c2.4,1.3,23.2,12.8,24.8,17.8c0.2,0.6,0,1.2-0.4,1.7C174.4,408.2,171.6,408.6,167.2,408.6z M143.2,400.3&#10;&#9;&#9;c0.2,0,0.4,0.1,0.5,0.2c1.4,1.2,5.3,4.6,6.7,5.2c1.6,0.6,21.7,2.7,24,0.5c0.1-0.1,0.1-0.1,0.1-0.1c-1.2-3.7-17.5-13.4-24-16.9&#10;&#9;&#9;h-16.7c0,7.1,0.4,14.7,0.9,16.2c1.2,0.1,5,0.1,7.8,0.1l0.1-4.4c0-0.3,0.2-0.5,0.4-0.6C143,400.3,143.1,400.3,143.2,400.3&#10;&#9;&#9;L143.2,400.3z"/>
	<path class="st3_businesswoman-2" d="M81.8,387.5c0,0,9.7,1.4,15.2,0.4c0,0,0.7,19-1.1,19.4s-6.6-0.2-6.6-0.2l0.9-4.4c0,0-3.2,3.8-5.4,4.5&#10;&#9;&#9;s-14.6,2.6-16.1,0.7S81.8,387.5,81.8,387.5z"/>
	<path class="st3_businesswoman-2" d="M73,409.5c-2.3,0-4.1-0.3-4.7-1.1c-1.6-2.1,7.4-14.3,13-21.4c0.2-0.2,0.4-0.3,0.7-0.3c0.1,0,9.6,1.4,15,0.4&#10;&#9;&#9;c0.2,0,0.4,0,0.6,0.1c0.2,0.1,0.3,0.3,0.3,0.5c0.5,13-0.1,19.7-1.7,20.1c-1.9,0.5-6.3-0.1-6.8-0.2c-0.4-0.1-0.7-0.4-0.6-0.8&#10;&#9;&#9;c0,0,0,0,0,0L89,405c-1.1,1.2-2.4,2.2-3.9,2.9C81.2,408.9,77.1,409.4,73,409.5z M82.1,388.2c-6.4,8.2-13,17.9-12.7,19.4&#10;&#9;&#9;c0.9,1.2,12.5-0.1,15.2-1.1c1.6-0.6,4.2-3.3,5.1-4.3c0.2-0.2,0.6-0.3,0.9-0.2c0.3,0.1,0.5,0.5,0.4,0.8l-0.8,3.7&#10;&#9;&#9;c1.8,0.3,3.6,0.3,5.4,0.1c0.8-1.2,1-10,0.7-17.9C91.3,389.4,84,388.5,82.1,388.2L82.1,388.2z"/>
</g>
<g id="Desk_and_Chair_businesswoman-2">
	<path class="st1_businesswoman-2" d="M420.1,203.8c-4.4-1.7-84.7-6-89.6,0c-15.3,18.5-13.4,71.8-13.4,71.8l96.4-5.8&#10;&#9;&#9;C413.5,269.8,424.6,205.4,420.1,203.8z"/>
	<path class="st0_businesswoman-2" d="M317.1,276.2c-0.2,0-0.3-0.1-0.5-0.2c-0.1-0.1-0.2-0.3-0.2-0.5c-0.2-9.7,0.1-19.4,1-29&#10;&#9;&#9;c1.9-20.9,6.2-35.4,12.6-43.2c5.3-6.4,85.7-2,90.4-0.2c1.1,0.4,3.3,1.2-1.2,34.4c-2.2,16.1-5,32.2-5,32.4c-0.1,0.3-0.3,0.6-0.6,0.6&#10;&#9;&#9;L317.1,276.2L317.1,276.2z M361,201.4c-15.4,0-28.2,0.7-29.9,2.8c-14,17-13.4,64.2-13.3,70.6l95.1-5.7c5.2-30.4,9.3-62.8,7-64.7&#10;&#9;&#9;C416.7,203.3,385.6,201.4,361,201.4z M419.9,204.4L419.9,204.4z"/>
	<path class="st1_businesswoman-2" d="M413.5,207.3c0,0-14.1,3.7-17,61.1"/>
	<path class="st0_businesswoman-2" d="M396.5,269L396.5,269c-0.4,0-0.7-0.3-0.7-0.7c3-57.3,17-61.6,17.5-61.7c0.4-0.1,0.7,0.1,0.9,0.5c0,0,0,0,0,0&#10;&#9;&#9;c0.1,0.4-0.1,0.7-0.5,0.9c-0.2,0.1-13.6,4.7-16.5,60.4C397.2,268.7,396.8,269,396.5,269C396.5,269,396.5,269,396.5,269z"/>
	<rect x="186.1" y="250.9" class="st1_businesswoman-2" width="267.3" height="11.4"/>
	<path class="st0_businesswoman-2" d="M453.4,263H186.1c-0.4,0-0.7-0.3-0.7-0.7l0,0v-11.4c0-0.4,0.3-0.7,0.7-0.7h267.3c0.4,0,0.7,0.3,0.7,0.7&#10;&#9;&#9;c0,0,0,0,0,0v11.4C454.1,262.7,453.8,263,453.4,263C453.4,263,453.4,263,453.4,263z M186.8,261.6h265.9v-10H186.8L186.8,261.6z"/>
	<rect x="191.5" y="262.3" class="st1_businesswoman-2" width="256.5" height="120"/>
	<path class="st0_businesswoman-2" d="M448,383H191.5c-0.4,0-0.7-0.3-0.7-0.7l0,0v-120c0-0.4,0.3-0.7,0.7-0.7c0,0,0,0,0,0H448c0.4,0,0.7,0.3,0.7,0.7&#10;&#9;&#9;v120C448.7,382.7,448.4,383,448,383L448,383z M192.2,381.6h255.1V263h-255L192.2,381.6z"/>
	<polygon class="st1_businesswoman-2" points="288,250.9 228.4,250.9 233.5,233.3 293.1,233.3 &#9;"/>
	<path class="st0_businesswoman-2" d="M288,251.6h-59.6c-0.4,0-0.7-0.3-0.7-0.7c0-0.1,0-0.1,0-0.2l5.2-17.6c0.1-0.3,0.4-0.5,0.7-0.5h59.6&#10;&#9;&#9;c0.2,0,0.4,0.1,0.6,0.3c0.1,0.2,0.2,0.4,0.1,0.6l-5.2,17.6C288.5,251.3,288.3,251.5,288,251.6z M229.3,250.2h58.2l4.7-16.2h-58.1&#10;&#9;&#9;L229.3,250.2z"/>
	<polygon class="st0_businesswoman-2" points="293.1,233.3 298,250.9 288,250.9 &#9;"/>
	<path class="st0_businesswoman-2" d="M298,251.6h-10c-0.4,0-0.7-0.3-0.7-0.7c0-0.1,0-0.1,0-0.2l5.2-17.6c0.1-0.3,0.4-0.5,0.7-0.5&#10;&#9;&#9;c0.3,0,0.6,0.2,0.7,0.5l4.8,17.6c0.1,0.4-0.1,0.7-0.5,0.9C298.1,251.6,298.1,251.6,298,251.6L298,251.6z M288.9,250.2h8.1&#10;&#9;&#9;l-3.9-14.3L288.9,250.2z"/>
</g>
</svg>